<?xml version="1.0" encoding="iso-8859-1"?>
<!-- Uploaded to: SVG Repo, www.svgrepo.com, Generator: SVG Repo Mixer Tools -->
<!DOCTYPE svg PUBLIC "-//W3C//DTD SVG 1.1//EN" "http://www.w3.org/Graphics/SVG/1.1/DTD/svg11.dtd">
<svg fill="#000000" height="800px" width="800px" version="1.1" id="Capa_1" xmlns="http://www.w3.org/2000/svg" xmlns:xlink="http://www.w3.org/1999/xlink" 
	 viewBox="0 0 420 420" xml:space="preserve">
<g>
	<path d="M200.068,162.081c0.12,0.068,0.234,0.144,0.358,0.208c8.161,4.209,17.356,6.433,26.592,6.433
		c9.236,0,18.428-2.219,26.582-6.417c0.122-0.063,0.234-0.138,0.353-0.205c19.212-10.061,31.132-29.736,31.132-51.453
		c0-32.013-26.049-58.057-58.066-58.057c-32.021,0-58.071,26.044-58.071,58.057C168.948,132.339,180.863,152.006,200.068,162.081z
		 M215.016,146.783v-26.137h24.001v26.145c-3.836,1.273-7.849,1.931-11.998,1.931C222.87,148.722,218.855,148.061,215.016,146.783z
		 M227.019,72.589c20.99,0,38.066,17.072,38.066,38.057c0,7.506-2.171,14.642-6.068,20.677v-20.677c0-5.523-4.478-10-10-10h-44
		c-5.523,0-10,4.477-10,10v20.659c-3.897-6.034-6.068-13.162-6.068-20.659C188.948,89.662,206.026,72.589,227.019,72.589z"/>
	<path d="M10,307.99c13.896,0,20.203,3.784,28.187,8.575c8.925,5.355,19.042,11.425,38.478,11.425
		c19.436,0,29.551-6.07,38.476-11.425c7.984-4.791,14.291-8.575,28.186-8.575c4.286,0,7.847,0.362,10.96,1
		c0.172,0.04,0.343,0.083,0.517,0.114c6.698,1.464,11.327,4.23,16.71,7.46c8.925,5.355,19.042,11.425,38.478,11.425
		c19.437,0,29.554-6.07,38.479-11.425c1.4-0.84,2.749-1.646,4.096-2.41c0.029-0.017,0.059-0.033,0.088-0.05
		c6.305-3.563,12.598-6.115,24.005-6.115c13.898,0,20.206,3.784,28.191,8.575c8.926,5.355,19.042,11.425,38.48,11.425
		s29.554-6.07,38.479-11.425c7.985-4.791,14.293-8.575,28.19-8.575c5.522,0,10-4.477,10-10c0-5.523-4.478-10-10-10
		c-19.438,0-29.554,6.07-38.479,11.425c-7.985,4.791-14.293,8.575-28.19,8.575c-13.898,0-20.205-3.784-28.191-8.575
		c-8.926-5.355-19.043-11.425-38.48-11.425c-5.494,0-10.223,0.497-14.412,1.314c1.218-5.819,2.322-12.241,3.326-19.329
		c1.033-7.253,1.957-14.035,2.679-20.39c13.493,6.38,27.442,9.558,41.057,9.558c21.668,0,42.486-8.027,59.241-23.899
		c4.01-3.798,4.181-10.128,0.383-14.137c-3.798-4.008-10.127-4.181-14.137-0.382c-23.163,21.941-55.335,24.468-85.014,7.073
		c0.078-8.732-0.734-16.405-2.913-23.125c-7.665-23.64-30.619-29.508-47.214-31.864c-16.601-2.365-40.285-3.128-54.236,17.46
		c-1.32,1.947-2.513,4.052-3.62,6.283c-32.146-11.748-51.569-37.806-51.389-70.502c21.644-4.422,37.978-23.609,37.978-46.54
		c0-26.191-21.308-47.5-47.5-47.5c-26.191,0-47.5,21.309-47.5,47.5c0,22.586,15.851,41.527,37.009,46.318
		c-0.233,23.935,7.772,45.403,23.441,62.55c10.805,11.825,25.019,21.006,41.367,26.983c-2.698,10.748-4.65,23.397-6.712,37.979
		c-1.959,13.752-2.857,25.085-2.727,34.699c-0.804-0.022-1.602-0.048-2.44-0.048c-19.435,0-29.551,6.07-38.476,11.425
		c-7.984,4.79-14.291,8.575-28.186,8.575c-13.896,0-20.203-3.784-28.188-8.575C39.552,294.06,29.436,287.99,10,287.99
		c-5.523,0-10,4.477-10,10C0,303.513,4.477,307.99,10,307.99z M73.39,79.51c0-15.164,12.337-27.5,27.5-27.5
		c15.164,0,27.5,12.336,27.5,27.5s-12.336,27.5-27.5,27.5c-0.002,0-0.004,0-0.005,0c-0.007,0-0.014-0.001-0.021-0.001
		C85.712,106.995,73.39,94.665,73.39,79.51z M168.296,256.15c1.967-13.904,3.785-25.812,6.158-35.454
		c2.921,0.57,5.878,1.066,8.884,1.447c0.427,0.054,0.85,0.08,1.269,0.08c4.962,0,9.268-3.692,9.908-8.745
		c0.694-5.479-3.186-10.483-8.665-11.177c-1.355-0.172-2.689-0.373-4.015-0.585c0.049-0.073,0.093-0.156,0.142-0.228
		c4.444-6.558,11.743-12.173,34.863-8.879c23.118,3.283,28.564,10.703,31.006,18.232c3.834,11.826,1.56,30.8-2.074,56.322
		c-1.839,12.995-3.989,23.391-6.543,31.624c-0.35,0.209-0.701,0.419-1.047,0.626c-7.985,4.791-14.292,8.575-28.189,8.575
		c-13.896,0-20.203-3.784-28.188-8.575c-4.613-2.768-9.556-5.72-15.927-7.933C165.409,282.315,166.198,270.877,168.296,256.15z"/>
	<path d="M410,347.99c-19.438,0-29.554,6.07-38.479,11.425c-7.985,4.791-14.293,8.575-28.19,8.575
		c-13.898,0-20.205-3.784-28.191-8.575c-8.926-5.355-19.043-11.425-38.48-11.425c-19.437,0-29.553,6.07-38.478,11.425
		c-7.985,4.791-14.292,8.575-28.189,8.575c-13.896,0-20.203-3.784-28.188-8.575c-8.925-5.355-19.041-11.425-38.478-11.425
		c-19.435,0-29.551,6.07-38.476,11.425c-7.984,4.79-14.291,8.575-28.186,8.575c-13.896,0-20.203-3.784-28.188-8.575
		C39.552,354.06,29.436,347.99,10,347.99c-5.523,0-10,4.477-10,10c0,5.523,4.477,10,10,10c13.896,0,20.203,3.784,28.187,8.575
		c8.925,5.355,19.042,11.425,38.478,11.425c19.436,0,29.551-6.07,38.476-11.425c7.984-4.791,14.291-8.575,28.186-8.575
		c13.896,0,20.203,3.784,28.188,8.575c8.925,5.355,19.042,11.425,38.478,11.425c19.437,0,29.554-6.07,38.479-11.425
		c7.985-4.791,14.292-8.575,28.189-8.575c13.898,0,20.206,3.784,28.191,8.575c8.926,5.355,19.042,11.425,38.48,11.425
		s29.554-6.07,38.479-11.425c7.985-4.791,14.293-8.575,28.19-8.575c5.522,0,10-4.477,10-10C420,352.467,415.522,347.99,410,347.99z"
		/>
</g>
</svg>